{"accessors":[{"bufferView":0,"byteOffset":0,"componentType":5126,"count":42,"max":[0.5,1.0,0.5],"min":[-0.5,-1.0,-0.5],"normalized":false,"type":"VEC3"},{"bufferView":1,"byteOffset":0,"componentType":5126,"count":42,"max":[1.0,1.0,1.0,1.0],"min":[-1.0,-0.0000304562272503972,-1.0,1.0],"normalized":false,"type":"VEC4"},{"bufferView":2,"byteOffset":0,"componentType":5126,"count":42,"max":[1.0,1.0,1.0],"min":[-1.0,-1.0,-1.0],"normalized":false,"type":"VEC3"},{"bufferView":3,"byteOffset":0,"componentType":5126,"count":42,"max":[0.707515060901642,0.761715114116669],"min":[0.168444335460663,0.121080338954926],"normalized":false,"type":"VEC2"},{"bufferView":4,"byteOffset":0,"componentType":5123,"count":132,"max":[41.0],"min":[0.0],"normalized":false,"type":"SCALAR"},{"bufferView":5,"byteOffset":0,"componentType":5126,"count":42,"max":[0.5,1.0,0.5],"min":[-0.5,-1.0,-0.5],"normalized":false,"type":"VEC3"},{"bufferView":6,"byteOffset":0,"componentType":5126,"count":42,"max":[1.0,1.0,1.0,1.0],"min":[-1.0,-0.0000304562272503972,-1.0,1.0],"normalized":false,"type":"VEC4"},{"bufferView":7,"byteOffset":0,"componentType":5126,"count":42,"max":[1.0,1.0,1.0],"min":[-1.0,-1.0,-1.0],"normalized":false,"type":"VEC3"},{"bufferView":8,"byteOffset":0,"componentType":5126,"count":42,"max":[0.707515060901642,0.761715114116669],"min":[0.168444335460663,0.121080338954926],"normalized":false,"type":"VEC2"},{"bufferView":9,"byteOffset":0,"componentType":5123,"count":132,"max":[41.0],"min":[0.0],"normalized":false,"type":"SCALAR"},{"bufferView":10,"byteOffset":0,"componentType":5126,"count":42,"max":[0.5,1.0,0.5],"min":[-0.5,-1.0,-0.5],"normalized":false,"type":"VEC3"},{"bufferView":11,"byteOffset":0,"componentType":5126,"count":42,"max":[1.0,1.0,1.0,1.0],"min":[-1.0,-0.0000304562272503972,-1.0,1.0],"normalized":false,"type":"VEC4"},{"bufferView":12,"byteOffset":0,"componentType":5126,"count":42,"max":[1.0,1.0,1.0],"min":[-1.0,-1.0,-1.0],"normalized":false,"type":"VEC3"},{"bufferView":13,"byteOffset":0,"componentType":5126,"count":42,"max":[0.707515060901642,0.761715114116669],"min":[0.168444335460663,0.121080338954926],"normalized":false,"type":"VEC2"},{"bufferView":14,"byteOffset":0,"componentType":5123,"count":132,"max":[41.0],"min":[0.0],"normalized":false,"type":"SCALAR"},{"bufferView":15,"byteOffset":0,"componentType":5126,"count":42,"max":[0.5,1.0,0.5],"min":[-0.5,-1.0,-0.5],"normalized":false,"type":"VEC3"},{"bufferView":16,"byteOffset":0,"componentType":5126,"count":42,"max":[1.0,1.0,1.0,1.0],"min":[-1.0,-0.0000304562272503972,-1.0,1.0],"normalized":false,"type":"VEC4"},{"bufferView":17,"byteOffset":0,"componentType":5126,"count":42,"max":[1.0,1.0,1.0],"min":[-1.0,-1.0,-1.0],"normalized":false,"type":"VEC3"},{"bufferView":18,"byteOffset":0,"componentType":5126,"count":42,"max":[0.707515060901642,0.761715114116669],"min":[0.168444335460663,0.121080338954926],"normalized":false,"type":"VEC2"},{"bufferView":19,"byteOffset":0,"componentType":5123,"count":132,"max":[41.0],"min":[0.0],"normalized":false,"type":"SCALAR"},{"bufferView":20,"byteOffset":0,"componentType":5126,"count":42,"max":[1.0,1.0,0.5],"min":[-1.0,-1.0,-0.5],"normalized":false,"type":"VEC3"},{"bufferView":21,"byteOffset":0,"componentType":5126,"count":42,"max":[1.0,1.0,1.0,1.0],"min":[-1.0,-0.0000304562272503972,-1.0,1.0],"normalized":false,"type":"VEC4"},{"bufferView":22,"byteOffset":0,"componentType":5126,"count":42,"max":[1.0,1.0,1.0],"min":[-1.0,-1.0,-1.0],"normalized":false,"type":"VEC3"},{"bufferView":23,"byteOffset":0,"componentType":5126,"count":42,"max":[0.337636381387711,0.759761929512024],"min":[0.0219577327370644,0.00389105058275163],"normalized":false,"type":"VEC2"},{"bufferView":24,"byteOffset":0,"componentType":5123,"count":132,"max":[41.0],"min":[0.0],"normalized":false,"type":"SCALAR"},{"bufferView":25,"byteOffset":0,"componentType":5126,"count":461,"max":[0.598924994468689,0.601212024688721,0.598924994468689],"min":[-0.598924994468689,-0.601212024688721,-0.598924994468689],"normalized":false,"type":"VEC3"},{"bufferView":26,"byteOffset":0,"componentType":5126,"count":461,"max":[1.0,0.047692883759737,0.707365691661835,1.0],"min":[-0.996372044086456,-0.0476930029690266,-0.70735490322113,-1.0],"normalized":false,"type":"VEC4"},{"bufferView":27,"byteOffset":0,"componentType":5126,"count":461,"max":[0.996271252632141,1.0,0.996271133422852],"min":[-0.996274173259735,-1.0,-0.996269702911377],"normalized":false,"type":"VEC3"},{"bufferView":28,"byteOffset":0,"componentType":5126,"count":461,"max":[0.977550983428955,0.234375],"min":[0.880859017372131,0.015625],"normalized":false,"type":"VEC2"},{"bufferView":29,"byteOffset":0,"componentType":5123,"count":2538,"max":[460.0],"min":[0.0],"normalized":false,"type":"SCALAR"}],"asset":{"generator":"Godot Engine v4.4.stable.official@4c311cbee68c0b66ff8ebb8b0defdd9979dd2a41","version":"2.0"},"bufferViews":[{"buffer":0,"byteLength":504,"byteOffset":0,"byteStride":12,"target":34962},{"buffer":0,"byteLength":672,"byteOffset":504,"byteStride":16,"target":34962},{"buffer":0,"byteLength":504,"byteOffset":1176,"byteStride":12,"target":34962},{"buffer":0,"byteLength":336,"byteOffset":1680,"byteStride":8,"target":34962},{"buffer":0,"byteLength":264,"byteOffset":2016,"target":34963},{"buffer":0,"byteLength":504,"byteOffset":2280,"byteStride":12,"target":34962},{"buffer":0,"byteLength":672,"byteOffset":2784,"byteStride":16,"target":34962},{"buffer":0,"byteLength":504,"byteOffset":3456,"byteStride":12,"target":34962},{"buffer":0,"byteLength":336,"byteOffset":3960,"byteStride":8,"target":34962},{"buffer":0,"byteLength":264,"byteOffset":4296,"target":34963},{"buffer":0,"byteLength":504,"byteOffset":4560,"byteStride":12,"target":34962},{"buffer":0,"byteLength":672,"byteOffset":5064,"byteStride":16,"target":34962},{"buffer":0,"byteLength":504,"byteOffset":5736,"byteStride":12,"target":34962},{"buffer":0,"byteLength":336,"byteOffset":6240,"byteStride":8,"target":34962},{"buffer":0,"byteLength":264,"byteOffset":6576,"target":34963},{"buffer":0,"byteLength":504,"byteOffset":6840,"byteStride":12,"target":34962},{"buffer":0,"byteLength":672,"byteOffset":7344,"byteStride":16,"target":34962},{"buffer":0,"byteLength":504,"byteOffset":8016,"byteStride":12,"target":34962},{"buffer":0,"byteLength":336,"byteOffset":8520,"byteStride":8,"target":34962},{"buffer":0,"byteLength":264,"byteOffset":8856,"target":34963},{"buffer":0,"byteLength":504,"byteOffset":9120,"byteStride":12,"target":34962},{"buffer":0,"byteLength":672,"byteOffset":9624,"byteStride":16,"target":34962},{"buffer":0,"byteLength":504,"byteOffset":10296,"byteStride":12,"target":34962},{"buffer":0,"byteLength":336,"byteOffset":10800,"byteStride":8,"target":34962},{"buffer":0,"byteLength":264,"byteOffset":11136,"target":34963},{"buffer":0,"byteLength":5532,"byteOffset":11400,"byteStride":12,"target":34962},{"buffer":0,"byteLength":7376,"byteOffset":16932,"byteStride":16,"target":34962},{"buffer":0,"byteLength":5532,"byteOffset":24308,"byteStride":12,"target":34962},{"buffer":0,"byteLength":3688,"byteOffset":29840,"byteStride":8,"target":34962},{"buffer":0,"byteLength":5076,"byteOffset":33528,"target":34963}],"buffers":[{"byteLength":38604,"uri":"BLENDER_CHAR0.bin"}],"extensionsUsed":["GODOT_single_root","OMI_physics_body"],"images":[{"uri":"textures%2FRig1Mtl_albedo.png"},{"uri":"textures%2FRig1Mtl_albedo2.png"}],"materials":[{"extensions":{},"name":"Rig1Mtl","pbrMetallicRoughness":{"baseColorFactor":[1.0,1.0,1.0,1.0],"metallicFactor":0.0,"roughnessFactor":1.0}},{"extensions":{},"name":"Rig1Mtl2","pbrMetallicRoughness":{"baseColorFactor":[1.0,1.0,1.0,1.0],"baseColorTexture":{"index":0},"metallicFactor":0.0,"roughnessFactor":1.0}},{"extensions":{},"name":"Rig1Mtl3","pbrMetallicRoughness":{"baseColorFactor":[1.0,1.0,1.0,1.0],"baseColorTexture":{"index":1},"metallicFactor":0.0,"roughnessFactor":1.0}}],"meshes":[{"extras":{"targetNames":[]},"primitives":[{"attributes":{"NORMAL":2,"POSITION":0,"TANGENT":1,"TEXCOORD_0":3},"indices":4,"material":0,"mode":4}]},{"extras":{"targetNames":[]},"primitives":[{"attributes":{"NORMAL":7,"POSITION":5,"TANGENT":6,"TEXCOORD_0":8},"indices":9,"material":0,"mode":4}]},{"extras":{"targetNames":[]},"primitives":[{"attributes":{"NORMAL":12,"POSITION":10,"TANGENT":11,"TEXCOORD_0":13},"indices":14,"material":0,"mode":4}]},{"extras":{"targetNames":[]},"primitives":[{"attributes":{"NORMAL":17,"POSITION":15,"TANGENT":16,"TEXCOORD_0":18},"indices":19,"material":0,"mode":4}]},{"extras":{"targetNames":[]},"primitives":[{"attributes":{"NORMAL":22,"POSITION":20,"TANGENT":21,"TEXCOORD_0":23},"indices":24,"material":1,"mode":4}]},{"extras":{"targetNames":[]},"primitives":[{"attributes":{"NORMAL":27,"POSITION":25,"TANGENT":26,"TEXCOORD_0":28},"indices":29,"material":2,"mode":4}]}],"nodes":[{"children":[1],"extensions":{"OMI_physics_body":{"motion":{"type":"kinematic"}}},"name":"CharacterBody3D","scale":[1.20000004768372,1.20000004768372,1.20000004768372]},{"children":[2,3,4,5,7,8,9],"name":"Node3D"},{"mesh":0,"name":"Right Leg","scale":[1.08692002296448,1.05999994277954,1.06720995903015],"translation":[-0.54737001657486,-1.08896005153656,0.0136515004560351]},{"mesh":1,"name":"Left Leg","scale":[1.08692002296448,1.05999994277954,1.06720995903015],"translation":[0.549058020114899,-1.08896005153656,0.0136515004560351]},{"mesh":2,"name":"Left Arm","scale":[1.08692002296448,1.05999994277954,1.06720995903015],"translation":[1.63100004196167,1.03199994564056,-0.00300000002607703]},{"children":[6],"mesh":3,"name":"Right Arm","scale":[1.08692002296448,1.05999994277954,1.06720995903015],"translation":[-1.62999999523163,1.03199994564056,-0.00300000002607703]},{"name":"ToolPos","scale":[0.920031011104584,0.943396985530853,0.937022984027863],"translation":[-0.0337343998253345,-0.97358500957489,0.00281107006594539]},{"mesh":4,"name":"Torso","scale":[1.08333003520966,1.07396996021271,1.09193003177643],"translation":[0.0,1.02338004112244,0.0]},{"mesh":5,"name":"Head","rotation":[0.0,1.0,0.0,-0.00000126758902752044],"scale":[1.09500002861023,1.09500002861023,1.09500002861023],"translation":[0.0,2.72623991966248,0.0]},{"name":"7Model","scale":[0.833333015441895,0.833333015441895,0.833333015441895],"translation":[0.583895027637482,0.0,3.43789005279541]}],"samplers":[{"magFilter":9729,"minFilter":9987,"wrapS":10497,"wrapT":10497}],"scene":0,"scenes":[{"nodes":[0]}],"textures":[{"sampler":0,"source":0},{"sampler":0,"source":1}]}