# This file is brought to you by Roblox Corporation
# Generated by Roblox Studio

mtllib stand.mtl

g Default1

v 2.16092 0.87382 -1.54666 
v 2.16092 1.31302 -1.54666 
v -2.16091 1.31302 -1.54666 
v 1.75456 -1.31302 -1.25581 
v -1.75456 -1.31302 -1.25581 
v 1.12358 0.189254 -1.25581 
v 1.12358 -0.983673 -1.25581 
v -1.12358 -0.983673 -1.25581 
v -1.12358 0.189254 -1.25581 
v -1.12358 -0.983673 -1.4995 
v -2.16091 1.31302 -1.54666 
v 2.16092 0.87382 -1.54666 
v -2.16091 0.87382 -1.54666 
v 2.16092 1.31302 -1.54666 
v 1.12358 -0.983673 -1.4995 
v -1.12358 -0.983673 -1.4995 
v -0.989384 -0.913629 -1.4995 
v -0.989384 0.119209 -1.4995 
v 0.989383 -0.913629 -1.4995 
v -1.12358 0.189254 -1.4995 
v 0.989383 0.119209 -1.4995 
v 1.12358 0.189254 -1.4995 
v -1.75456 -1.31302 -1.25581 
v 1.12358 -0.983673 -1.25581 
v 1.75456 -1.31302 -1.25581 
v -1.12358 -0.983673 -1.25581 
v 1.12358 0.189254 -1.25581 
v -1.12358 0.189254 -1.25581 
v 1.75456 0.518601 -1.25581 
v -1.75456 0.518601 -1.25581 
v 0.989383 0.119209 -1.11099 
v -0.989384 -0.913629 -1.11099 
v -0.989384 0.119209 -1.11099 
v 0.989383 -0.913629 -1.11099 
v -2.16091 0.87382 -1.54666 
v 1.75456 0.518601 -1.25581 
v -1.75456 0.518601 -1.25581 
v 2.16092 0.87382 -1.54666 
v 2.16092 1.31302 1.54666 
v -2.16091 1.31302 1.54666 
v 2.16092 0.87382 -1.54666 
v 2.16092 1.31302 -1.54666 
v -2.16091 1.31302 -1.54666 
v -2.16091 1.31302 -1.54666 
v -2.16091 1.31302 1.54666 
v 2.16092 1.31302 1.54666 
v 2.16092 1.31302 -1.54666 
v 1.12358 -0.983673 -1.25581 
v -1.12358 -0.983673 -1.4995 
v -0.989384 -0.913629 -1.11099 
v 0.989383 -0.913629 -1.11099 
v 1.12358 0.189254 -1.4995 
v -1.12358 0.189254 -1.4995 
v -1.12358 0.189254 -1.25581 
v 1.12358 0.189254 -1.25581 
v -0.989384 -0.913629 -1.11099 
v 0.989383 -0.913629 -1.4995 
v -0.989384 -0.913629 -1.4995 
v 0.989383 -0.913629 -1.11099 
v 2.16092 1.31302 1.54666 
v 2.16092 0.87382 1.54666 
v 2.16092 0.87382 -1.54666 
v 2.16092 1.31302 -1.54666 
v 2.16092 1.31302 1.54666 
v 1.75456 -1.31302 1.25581 
v 1.75456 -1.31302 1.25581 
v 1.75456 -1.31302 -1.25581 
v 1.75456 0.518601 1.25581 
v 1.75456 0.518601 -1.25581 
v 1.12358 -0.983673 -1.4995 
v 1.12358 0.189254 -1.25581 
v 1.12358 -0.983673 -1.25581 
v 1.12358 0.189254 -1.4995 
v -1.12358 0.189254 -1.25581 
v -1.12358 -0.983673 -1.4995 
v -0.989384 -0.913629 -1.11099 
v -0.989384 0.119209 -1.11099 
v -0.989384 0.119209 -1.11099 
v -0.989384 -0.913629 -1.11099 
v -0.989384 -0.913629 -1.4995 
v -0.989384 0.119209 -1.4995 
v 2.16092 1.31302 1.54666 
v -2.16091 1.31302 1.54666 
v -2.16091 0.87382 1.54666 
v 2.16092 0.87382 1.54666 
v -1.75456 -1.31302 1.25581 
v 1.75456 -1.31302 1.25581 
v -1.75456 0.518601 1.25581 
v 1.75456 0.518601 1.25581 
v -2.16091 0.87382 1.54666 
v 1.75456 0.518601 1.25581 
v 2.16092 0.87382 1.54666 
v -1.75456 0.518601 1.25581 
v -1.75456 -1.31302 1.25581 
v 1.75456 -1.31302 1.25581 
v 1.75456 -1.31302 -1.25581 
v -1.75456 -1.31302 -1.25581 
v -1.75456 -1.31302 1.25581 
v -1.75456 -1.31302 -1.25581 
v 1.75456 -1.31302 -1.25581 
v 1.75456 -1.31302 1.25581 
v 1.12358 0.189254 -1.25581 
v 1.12358 -0.983673 -1.25581 
v -1.12358 -0.983673 -1.25581 
v -1.12358 0.189254 -1.25581 
v -1.12358 -0.983673 -1.4995 
v 1.12358 -0.983673 -1.25581 
v -1.12358 -0.983673 -1.25581 
v 1.12358 -0.983673 -1.4995 
v 1.75456 0.518601 1.25581 
v 1.75456 0.518601 -1.25581 
v 2.16092 0.87382 -1.54666 
v 2.16092 0.87382 1.54666 
v -2.16091 0.87382 1.54666 
v -2.16091 0.87382 -1.54666 
v -1.75456 0.518601 -1.25581 
v -1.75456 0.518601 1.25581 
v 0.989383 0.119209 -1.11099 
v -0.989384 0.119209 -1.11099 
v 0.989383 0.119209 -1.11099 
v -0.989384 0.119209 -1.11099 
v -0.989384 0.119209 -1.4995 
v 0.989383 0.119209 -1.4995 
v -2.16091 1.31302 1.54666 
v -2.16091 1.31302 1.54666 
v -2.16091 1.31302 -1.54666 
v -2.16091 0.87382 -1.54666 
v -2.16091 0.87382 1.54666 
v -1.75456 -1.31302 1.25581 
v -1.75456 0.518601 -1.25581 
v -1.75456 -1.31302 1.25581 
v -1.75456 0.518601 1.25581 
v -1.75456 -1.31302 -1.25581 
v 1.12358 0.189254 -1.25581 
v 1.12358 -0.983673 -1.25581 
v -1.12358 0.189254 -1.4995 
v -1.12358 -0.983673 -1.25581 
v -1.12358 0.189254 -1.25581 
v -1.12358 -0.983673 -1.4995 
v 0.989383 0.119209 -1.11099 
v 0.989383 -0.913629 -1.11099 
v 0.989383 -0.913629 -1.11099 
v 0.989383 0.119209 -1.11099 
v 0.989383 0.119209 -1.4995 
v 0.989383 -0.913629 -1.4995 

vn 1 0 0 
vn 1 0 0 
vn -1 0 0 
vn 1 0 0 
vn -1 0 0 
vn 1 0 0 
vn 1 0 0 
vn -1 0 0 
vn -1 0 0 
vn -1 0 0 
vn 0 0 -1 
vn 0 0 -1 
vn 0 0 -1 
vn 0 0 -1 
vn 0 0 -1 
vn 0 0 -1 
vn 0 0 -1 
vn 0 0 -1 
vn 0 0 -1 
vn 0 0 -1 
vn 0 0 -1 
vn 0 0 -1 
vn 0 0 -1 
vn 0 0 -1 
vn 0 0 -1 
vn 0 0 -1 
vn 0 0 -1 
vn 0 0 -1 
vn 0 0 -1 
vn 0 0 -1 
vn 0 0 -1 
vn 0 0 -1 
vn 0 0 -1 
vn 0 0 -1 
vn 0 -0.629921 -0.771654 
vn 0 -0.629921 -0.771654 
vn 0 -0.629921 -0.771654 
vn 0 -0.629921 -0.771654 
vn 0 0 1 
vn 0 0 1 
vn 1 0 0 
vn 1 0 0 
vn -1 0 0 
vn 0 1 0 
vn 0 1 0 
vn 0 1 0 
vn 0 1 0 
vn 1 0 0 
vn -1 0 0 
vn 0 0 -1 
vn 0 0 -1 
vn 0 1 0 
vn 0 1 0 
vn 0 1 0 
vn 0 1 0 
vn 0 1 0 
vn 0 1 0 
vn 0 1 0 
vn 0 1 0 
vn 0 0 1 
vn 1 0 0 
vn 1 0 0 
vn 1 0 0 
vn 1 0 0 
vn 0 0 1 
vn 1 0 0 
vn 1 0 0 
vn 1 0 0 
vn 1 0 0 
vn 1 0 0 
vn 1 0 0 
vn 1 0 0 
vn 1 0 0 
vn -1 0 0 
vn -1 0 0 
vn 0 0 -1 
vn 0 0 -1 
vn 1 0 0 
vn 1 0 0 
vn 1 0 0 
vn 1 0 0 
vn 0 0 1 
vn 0 0 1 
vn 0 0 1 
vn 0 0 1 
vn 0 0 1 
vn 0 0 1 
vn 0 0 1 
vn 0 0 1 
vn 0 -0.629921 0.771654 
vn 0 -0.629921 0.771654 
vn 0 -0.629921 0.771654 
vn 0 -0.629921 0.771654 
vn 0 0 1 
vn 0 0 1 
vn 1 0 0 
vn -1 0 0 
vn 0 -1 0 
vn 0 -1 0 
vn 0 -1 0 
vn 0 -1 0 
vn 1 0 0 
vn 1 0 0 
vn -1 0 0 
vn -1 0 0 
vn 0 -1 0 
vn 0 -1 0 
vn 0 -1 0 
vn 0 -1 0 
vn 0.661417 -0.755906 0 
vn 0.661417 -0.755906 0 
vn 0.661417 -0.755906 0 
vn 0.661417 -0.755906 0 
vn -0.661417 -0.755906 0 
vn -0.661417 -0.755906 0 
vn -0.661417 -0.755906 0 
vn -0.661417 -0.755906 0 
vn 0 0 -1 
vn 0 0 -1 
vn 0 -1 0 
vn 0 -1 0 
vn 0 -1 0 
vn 0 -1 0 
vn 0 0 1 
vn -1 0 0 
vn -1 0 0 
vn -1 0 0 
vn -1 0 0 
vn 0 0 1 
vn -1 0 0 
vn -1 0 0 
vn -1 0 0 
vn -1 0 0 
vn 1 0 0 
vn 1 0 0 
vn -1 0 0 
vn -1 0 0 
vn -1 0 0 
vn -1 0 0 
vn 0 0 -1 
vn 0 0 -1 
vn -1 0 0 
vn -1 0 0 
vn -1 0 0 
vn -1 0 0 

vt 45.7299 -56.8908 
vt 45.7299 -56.8359 
vt 46.2701 -56.8359 
vt 45.7807 -57.1641 
vt 46.2193 -57.1641 
vt 45.8596 -56.9763 
vt 45.8596 -57.123 
vt 46.1404 -57.123 
vt 46.1404 -56.9763 
vt 46.1404 -57.123 
vt 46.2701 -56.8359 
vt 45.7299 -56.8908 
vt 46.2701 -56.8908 
vt 45.7299 -56.8359 
vt 45.8596 -57.123 
vt 46.1404 -57.123 
vt 46.1237 -57.1142 
vt 46.1237 -56.9851 
vt 45.8763 -57.1142 
vt 46.1404 -56.9763 
vt 45.8763 -56.9851 
vt 45.8596 -56.9763 
vt 46.2193 -57.1641 
vt 45.8596 -57.123 
vt 45.7807 -57.1641 
vt 46.1404 -57.123 
vt 45.8596 -56.9763 
vt 46.1404 -56.9763 
vt 45.7807 -56.9352 
vt 46.2193 -56.9352 
vt 45.8763 -56.9851 
vt 46.1237 -57.1142 
vt 46.1237 -56.9851 
vt 45.8763 -57.1142 
vt 46.2701 -56.8908 
vt 45.7807 -56.9352 
vt 46.2193 -56.9352 
vt 45.7299 -56.8908 
vt 46.1933 -56.7299 
vt 46.1933 -57.2701 
vt 45.8067 -56.7299 
vt 45.8067 -56.7299 
vt 45.8067 -57.2701 
vt 45.8067 -57.2701 
vt 46.1933 -57.2701 
vt 46.1933 -56.7299 
vt 45.8067 -56.7299 
vt 45.843 -56.8596 
vt 45.8126 -57.1404 
vt 45.8611 -57.1237 
vt 45.8611 -56.8763 
vt 45.8126 -56.8596 
vt 45.8126 -57.1404 
vt 45.843 -57.1404 
vt 45.843 -56.8596 
vt 45.8611 -57.1237 
vt 45.8126 -56.8763 
vt 45.8126 -57.1237 
vt 45.8611 -56.8763 
vt 45.8067 -56.8359 
vt 45.8067 -56.8908 
vt 46.1933 -56.8908 
vt 46.1933 -56.8359 
vt 45.8067 -56.8359 
vt 45.843 -57.1641 
vt 45.843 -57.1641 
vt 46.157 -57.1641 
vt 45.843 -56.9352 
vt 46.157 -56.9352 
vt 46.1874 -57.123 
vt 46.157 -56.9763 
vt 46.157 -57.123 
vt 46.1874 -56.9763 
vt 46.157 -56.9763 
vt 46.1874 -57.123 
vt 46.1389 -57.1142 
vt 46.1389 -56.9851 
vt 46.1389 -56.9851 
vt 46.1389 -57.1142 
vt 46.1874 -57.1142 
vt 46.1874 -56.9851 
vt 46.2701 -56.8359 
vt 45.7299 -56.8359 
vt 45.7299 -56.8908 
vt 46.2701 -56.8908 
vt 45.7807 -57.1641 
vt 46.2193 -57.1641 
vt 45.7807 -56.9352 
vt 46.2193 -56.9352 
vt 45.7299 -56.8908 
vt 46.2193 -56.9352 
vt 46.2701 -56.8908 
vt 45.7807 -56.9352 
vt 45.843 -57.2193 
vt 45.843 -56.7807 
vt 46.157 -56.7807 
vt 46.157 -57.2193 
vt 45.843 -57.2193 
vt 46.157 -57.2193 
vt 46.157 -56.7807 
vt 45.843 -56.7807 
vt 46.157 -56.8596 
vt 46.157 -56.8596 
vt 46.157 -57.1404 
vt 46.157 -57.1404 
vt 46.1874 -57.1404 
vt 46.157 -56.8596 
vt 46.157 -57.1404 
vt 46.1874 -56.8596 
vt 45.843 -56.7807 
vt 46.157 -56.7807 
vt 46.1933 -56.7299 
vt 45.8067 -56.7299 
vt 45.8067 -57.2701 
vt 46.1933 -57.2701 
vt 46.157 -57.2193 
vt 45.843 -57.2193 
vt 46.1389 -56.8763 
vt 46.1389 -57.1237 
vt 46.1389 -56.8763 
vt 46.1389 -57.1237 
vt 46.1874 -57.1237 
vt 46.1874 -56.8763 
vt 46.1933 -56.8359 
vt 46.1933 -56.8359 
vt 45.8067 -56.8359 
vt 45.8067 -56.8908 
vt 46.1933 -56.8908 
vt 46.157 -57.1641 
vt 45.843 -56.9352 
vt 46.157 -57.1641 
vt 46.157 -56.9352 
vt 45.843 -57.1641 
vt 45.843 -56.9763 
vt 45.843 -57.123 
vt 45.8126 -56.9763 
vt 45.843 -57.123 
vt 45.843 -56.9763 
vt 45.8126 -57.123 
vt 45.8611 -56.9851 
vt 45.8611 -57.1142 
vt 45.8611 -57.1142 
vt 45.8611 -56.9851 
vt 45.8126 -56.9851 
vt 45.8126 -57.1142 

usemtl Default1Mtl

f 11/11/11 12/12/12 13/13/13 
f 12/12/12 11/11/11 14/14/14 
f 15/15/15 16/16/16 17/17/17 
f 16/16/16 18/18/18 17/17/17 
f 15/15/15 17/17/17 19/19/19 
f 16/16/16 20/20/20 18/18/18 
f 21/21/21 15/15/15 19/19/19 
f 20/20/20 21/21/21 18/18/18 
f 15/15/15 21/21/21 22/22/22 
f 20/20/20 22/22/22 21/21/21 
f 23/23/23 24/24/24 25/25/25 
f 24/24/24 23/23/23 26/26/26 
f 27/27/27 25/25/25 24/24/24 
f 23/23/23 28/28/28 26/26/26 
f 25/25/25 27/27/27 29/29/29 
f 23/23/23 30/30/30 28/28/28 
f 30/30/30 27/27/27 28/28/28 
f 30/30/30 29/29/29 27/27/27 
f 31/31/31 32/32/32 33/33/33 
f 32/32/32 31/31/31 34/34/34 
f 35/35/35 36/36/36 37/37/37 
f 35/35/35 38/38/38 36/36/36 
f 44/44/44 45/45/45 46/46/46 
f 44/44/44 46/46/46 47/47/47 
f 52/52/52 53/53/53 54/54/54 
f 54/54/54 55/55/55 52/52/52 
f 56/56/56 57/57/57 58/58/58 
f 57/57/57 56/56/56 59/59/59 
f 61/61/61 62/62/62 63/63/63 
f 61/61/61 63/63/63 64/64/64 
f 66/66/66 67/67/67 68/68/68 
f 67/67/67 69/69/69 68/68/68 
f 70/70/70 71/71/71 72/72/72 
f 71/71/71 70/70/70 73/73/73 
f 78/78/78 79/79/79 80/80/80 
f 80/80/80 81/81/81 78/78/78 
f 82/82/82 83/83/83 84/84/84 
f 84/84/84 85/85/85 82/82/82 
f 86/86/86 87/87/87 88/88/88 
f 88/88/88 87/87/87 89/89/89 
f 90/90/90 91/91/91 92/92/92 
f 91/91/91 90/90/90 93/93/93 
f 98/98/98 99/99/99 100/100/100 
f 98/98/98 100/100/100 101/101/101 
f 106/106/106 107/107/107 108/108/108 
f 107/107/107 106/106/106 109/109/109 
f 110/110/110 111/111/111 112/112/112 
f 110/110/110 112/112/112 113/113/113 
f 114/114/114 115/115/115 116/116/116 
f 114/114/114 116/116/116 117/117/117 
f 120/120/120 121/121/121 122/122/122 
f 122/122/122 123/123/123 120/120/120 
f 125/125/125 126/126/126 127/127/127 
f 125/125/125 127/127/127 128/128/128 
f 130/130/130 131/131/131 132/132/132 
f 131/131/131 130/130/130 133/133/133 
f 136/136/136 137/137/137 138/138/138 
f 137/137/137 136/136/136 139/139/139 
f 142/142/142 143/143/143 144/144/144 
f 144/144/144 145/145/145 142/142/142 

